<svg width="35" height="35" viewBox="0 0 35 35" fill="none" xmlns="http://www.w3.org/2000/svg">
<rect x="0.5" y="0.5" width="34" height="34" rx="7.5" fill="white" stroke="#E3B68C"/>
<path d="M16.2984 10.6269C16.2984 13.7144 13.7775 16.2178 10.6671 16.2178C7.55683 16.2178 5.03587 13.7144 5.03587 10.6269C5.03587 7.53928 7.55683 5.03587 10.6671 5.03587C13.7775 5.03587 16.2984 7.53928 16.2984 10.6269Z" fill="#00AAFF" stroke="#E3B68C" stroke-width="0.071736"/>
<path d="M27.6407 10.5908C27.6407 12.9945 25.6782 14.9433 23.2569 14.9433C20.8355 14.9433 18.873 12.9945 18.873 10.5908C18.873 8.18723 20.8355 6.23837 23.2569 6.23837C25.6782 6.23837 27.6407 8.18723 27.6407 10.5908Z" fill="#FF6162" stroke="#E3B68C" stroke-width="0.0558451"/>
<path d="M29.9574 23.3051C29.9574 26.9789 26.9577 29.9577 23.2569 29.9577C19.556 29.9577 16.5564 26.9789 16.5564 23.3051C16.5564 19.6313 19.556 16.6525 23.2569 16.6525C26.9577 16.6525 29.9574 19.6313 29.9574 23.3051Z" fill="#97CF25" stroke="#E3B68C" stroke-width="0.0853568"/>
<path d="M13.6067 23.3049C13.6067 24.9855 12.2345 26.3481 10.5416 26.3481C8.8486 26.3481 7.47643 24.9855 7.47643 23.3049C7.47643 21.6243 8.8486 20.2617 10.5416 20.2617C12.2345 20.2617 13.6067 21.6243 13.6067 23.3049Z" fill="#9F6AF6" stroke="#E3B68C" stroke-width="0.0390462"/>
</svg>
