<svg width="10" height="7" viewBox="0 0 10 7" fill="none" xmlns="http://www.w3.org/2000/svg">
<path d="M9.53584 0.296892C9.474 0.234534 9.40041 0.18504 9.31934 0.151264C9.23827 0.117487 9.15131 0.100098 9.06348 0.100098C8.97565 0.100098 8.8887 0.117487 8.80762 0.151264C8.72655 0.18504 8.65297 0.234534 8.59112 0.296892L3.63465 5.26001L1.55227 3.17098C1.48805 3.10895 1.41225 3.06017 1.32918 3.02744C1.24612 2.9947 1.15742 2.97865 1.06815 2.98019C0.978876 2.98174 0.890784 3.00085 0.808901 3.03644C0.727017 3.07203 0.652945 3.1234 0.590913 3.18761C0.528882 3.25183 0.480106 3.32763 0.447371 3.4107C0.414636 3.49376 0.398582 3.58246 0.400126 3.67173C0.401671 3.761 0.420783 3.8491 0.456372 3.93098C0.491961 4.01286 0.54333 4.08693 0.607546 4.14897L3.16229 6.70371C3.22414 6.76607 3.29772 6.81556 3.37879 6.84934C3.45987 6.88311 3.54682 6.9005 3.63465 6.9005C3.72248 6.9005 3.80944 6.88311 3.89051 6.84934C3.97158 6.81556 4.04517 6.76607 4.10701 6.70371L9.53584 1.27488C9.60337 1.21258 9.65727 1.13697 9.69413 1.05281C9.73099 0.968648 9.75002 0.877765 9.75002 0.785886C9.75002 0.694007 9.73099 0.603124 9.69413 0.518964C9.65727 0.434804 9.60337 0.359192 9.53584 0.296892Z" fill="white"/>
</svg>
