<svg width="33" height="25" viewBox="0 0 33 25" fill="none" xmlns="http://www.w3.org/2000/svg">
<path d="M2.89354 22.8449C1.01082 20.8452 0 18.6024 0 14.9667C0 8.56913 4.49112 2.83505 11.0222 0L12.6545 2.51883C6.55846 5.81633 5.36667 10.0954 4.89142 12.7934C5.873 12.2852 7.158 12.1079 8.41742 12.2249C11.7149 12.5302 14.3142 15.2373 14.3142 18.6024C14.3142 20.2991 13.6401 21.9264 12.4404 23.1262C11.2406 24.326 9.61332 25 7.91657 25C6.97824 24.9918 6.05092 24.797 5.18857 24.4271C4.32622 24.0571 3.54607 23.5193 2.89354 22.8449ZM21.1724 22.8449C19.2897 20.8452 18.2789 18.6024 18.2789 14.9667C18.2789 8.56913 22.77 2.83505 29.301 0L30.9333 2.51883C24.8373 5.81633 23.6455 10.0954 23.1703 12.7934C24.1519 12.2852 25.4369 12.1079 26.6963 12.2249C29.9938 12.5302 32.593 15.2373 32.593 18.6024C32.593 20.2991 31.919 21.9264 30.7192 23.1262C29.5194 24.326 27.8922 25 26.1954 25C25.2571 24.9918 24.3298 24.797 23.4674 24.4271C22.6051 24.0571 21.8249 23.5193 21.1724 22.8449Z" fill="#A3754B"/>
</svg>
