<svg width="23" height="23" viewBox="0 0 23 23" fill="none" xmlns="http://www.w3.org/2000/svg">
<path d="M3.39986 1.11675L11.4999 9.21675L19.5665 1.15008C19.7079 0.99961 19.8782 0.879239 20.0672 0.796185C20.2562 0.713131 20.4601 0.669105 20.6665 0.666748C21.1086 0.666748 21.5325 0.842343 21.845 1.1549C22.1576 1.46746 22.3332 1.89139 22.3332 2.33341C22.3371 2.53775 22.2992 2.74073 22.2218 2.92988C22.1444 3.11904 22.0292 3.29039 21.8832 3.43341L13.7332 11.5001L21.8832 19.6501C22.1579 19.9188 22.319 20.2827 22.3332 20.6667C22.3332 21.1088 22.1576 21.5327 21.845 21.8453C21.5325 22.1578 21.1086 22.3334 20.6665 22.3334C20.4541 22.3422 20.2422 22.3068 20.0442 22.2293C19.8463 22.1518 19.6666 22.034 19.5165 21.8834L11.4999 13.7834L3.41653 21.8667C3.27571 22.0122 3.10747 22.1283 2.92153 22.2084C2.7356 22.2885 2.53564 22.331 2.3332 22.3334C1.89117 22.3334 1.46725 22.1578 1.15469 21.8453C0.842126 21.5327 0.666531 21.1088 0.666531 20.6667C0.662645 20.4624 0.700557 20.2594 0.777939 20.0703C0.855322 19.8811 0.970543 19.7098 1.11653 19.5667L9.26653 11.5001L1.11653 3.35008C0.841839 3.08135 0.680764 2.71743 0.666531 2.33341C0.666531 1.89139 0.842126 1.46746 1.15469 1.1549C1.46725 0.842343 1.89117 0.666748 2.3332 0.666748C2.7332 0.671748 3.11653 0.833415 3.39986 1.11675Z" fill="white"/>
</svg>
