<svg width="25" height="25" viewBox="0 0 25 25" fill="none" xmlns="http://www.w3.org/2000/svg">
<path fill-rule="evenodd" clip-rule="evenodd" d="M22.3198 3.80365L14.3153 0.372689C13.7416 0.126794 13.1241 0 12.5 0C11.8759 0 11.2583 0.126794 10.6846 0.372689L2.68008 3.80365C2.40364 3.92216 2.16808 4.11923 2.00263 4.3704C1.83718 4.62158 1.74912 4.91581 1.74939 5.21659V13.2826C1.74956 14.7493 2.09985 16.1948 2.77112 17.4988C3.44239 18.8029 4.41526 19.9279 5.60884 20.7803L10.7154 24.4278C11.2363 24.8 11.8605 25 12.5007 25C13.1409 25 13.7651 24.8 14.2861 24.4278L19.3911 20.7803C20.5844 19.9281 21.5572 18.8033 22.2284 17.4995C22.8997 16.1957 23.2501 14.7506 23.2505 13.2841V5.21659C23.2505 4.91607 23.1623 4.62218 22.9969 4.3713C22.8314 4.12042 22.596 3.92359 22.3198 3.80519M18.3053 9.77022C18.4313 9.6127 18.5251 9.4319 18.5813 9.23814C18.6375 9.04438 18.6549 8.84145 18.6327 8.64093C18.6104 8.44042 18.5489 8.24625 18.4516 8.06952C18.3543 7.89278 18.2232 7.73694 18.0657 7.61089C17.9082 7.48484 17.7274 7.39105 17.5336 7.33487C17.3398 7.27869 17.1369 7.26122 16.9364 7.28347C16.7359 7.30572 16.5417 7.36724 16.365 7.46453C16.1882 7.56181 16.0324 7.69296 15.9063 7.85047L10.8352 14.1902L8.97684 12.3319C8.68719 12.0522 8.29924 11.8974 7.89656 11.9009C7.49388 11.9044 7.10868 12.0659 6.82393 12.3506C6.53918 12.6354 6.37767 13.0206 6.37417 13.4233C6.37067 13.8259 6.52547 14.2139 6.80523 14.5035L9.27018 16.9685C9.49921 17.1976 9.774 17.3759 10.0766 17.4917C10.3792 17.6074 10.7028 17.658 11.0263 17.6402C11.3498 17.6224 11.6659 17.5365 11.954 17.3882C12.2421 17.2399 12.4956 17.0325 12.6981 16.7796L18.3053 9.77022Z" fill="#A3754B"/>
</svg>
