<svg width="24" height="23" viewBox="0 0 24 23" fill="none" xmlns="http://www.w3.org/2000/svg">
<path d="M15.5569 13.906L15.1019 14.359C15.1019 14.359 14.0189 15.435 11.0639 12.497C8.10886 9.55898 9.19186 8.48298 9.19186 8.48298L9.47786 8.19698C10.1849 7.49498 10.2519 6.36698 9.63486 5.54298L8.37486 3.85998C7.61086 2.83998 6.13586 2.70498 5.26086 3.57498L3.69086 5.13498C3.25786 5.56698 2.96786 6.12498 3.00286 6.74498C3.09286 8.33198 3.81086 11.745 7.81486 15.727C12.0619 19.949 16.0469 20.117 17.6759 19.965C18.1919 19.917 18.6399 19.655 19.0009 19.295L20.4209 17.883C21.3809 16.93 21.1109 15.295 19.8829 14.628L17.9729 13.589C17.1669 13.152 16.1869 13.28 15.5569 13.906Z" fill="#A3754B"/>
</svg>
