<svg width="29" height="29" viewBox="0 0 29 29" fill="none" xmlns="http://www.w3.org/2000/svg">
<path d="M14.5 0.75C22.0941 0.75 28.25 6.90588 28.25 14.5C28.25 22.0941 22.0941 28.25 14.5 28.25C6.90588 28.25 0.75 22.0941 0.75 14.5C0.75 6.90588 6.90588 0.75 14.5 0.75ZM19.3606 9.52387L12.5544 16.3301L9.63938 13.4137C9.51171 13.286 9.36014 13.1846 9.19331 13.1155C9.02648 13.0463 8.84765 13.0107 8.66705 13.0106C8.3023 13.0105 7.95244 13.1552 7.69444 13.4131C7.43643 13.6709 7.29141 14.0206 7.29128 14.3854C7.29116 14.7501 7.43593 15.1 7.69375 15.358L11.486 19.1502C11.6265 19.2908 11.7932 19.4022 11.9768 19.4783C12.1603 19.5544 12.3571 19.5935 12.5558 19.5935C12.7544 19.5935 12.9512 19.5544 13.1347 19.4783C13.3183 19.4022 13.485 19.2908 13.6255 19.1502L21.3063 11.4695C21.5643 11.2115 21.7092 10.8616 21.7092 10.4967C21.7092 10.1318 21.5643 9.78188 21.3063 9.52387C21.0482 9.26587 20.6983 9.12092 20.3334 9.12092C19.9686 9.12092 19.6186 9.26587 19.3606 9.52387Z" fill="#A3754B"/>
</svg>
